<?xml version="1.0" standalone="no"?>
<!DOCTYPE svg PUBLIC "-//W3C//DTD SVG 20010904//EN"
 "http://www.w3.org/TR/2001/REC-SVG-20010904/DTD/svg10.dtd">
<svg version="1.0" xmlns="http://www.w3.org/2000/svg"
 width="512.000000pt" height="512.000000pt" viewBox="0 0 512.000000 512.000000"
 preserveAspectRatio="xMidYMid meet">

<g transform="translate(0.000000,512.000000) scale(0.100000,-0.100000)"
fill="#CCC" stroke="none">
<path d="M2370 5113 c-379 -36 -661 -116 -980 -278 -378 -193 -717 -497 -965
-865 -42 -63 -114 -191 -160 -285 -168 -340 -248 -661 -262 -1040 -15 -426 73
-832 263 -1214 133 -269 271 -459 488 -677 221 -220 412 -357 681 -489 188
-92 309 -137 500 -185 500 -126 1002 -102 1490 71 149 53 407 182 540 271 299
199 573 480 769 788 72 113 188 353 235 486 235 662 194 1372 -115 1993 -124
250 -263 447 -458 648 -216 224 -428 378 -711 518 -296 146 -572 225 -900 255
-102 9 -333 11 -415 3z m400 -1044 c313 -79 561 -341 625 -658 23 -112 16
-294 -15 -401 -133 -463 -623 -725 -1080 -578 -151 49 -297 147 -396 267 -62
74 -146 235 -170 326 -25 93 -30 285 -9 386 96 476 574 776 1045 658z m380
-2047 c47 -11 123 -34 169 -51 275 -101 511 -313 646 -581 42 -85 85 -197 85
-224 0 -16 -149 -153 -245 -227 -277 -213 -596 -349 -950 -405 -150 -25 -440
-25 -590 0 -433 69 -786 243 -1129 558 l-69 64 12 49 c16 66 98 237 150 313
196 289 505 479 851 522 36 5 272 7 525 5 424 -2 467 -4 545 -23z"/>
</g>
</svg>
