<?xml version="1.0" standalone="no"?>
<!DOCTYPE svg PUBLIC "-//W3C//DTD SVG 20010904//EN"
 "http://www.w3.org/TR/2001/REC-SVG-20010904/DTD/svg10.dtd">
<svg version="1.0" xmlns="http://www.w3.org/2000/svg"
 width="512.000000pt" height="512.000000pt" viewBox="0 0 512.000000 512.000000"
 preserveAspectRatio="xMidYMid meet">

<g transform="translate(0.000000,512.000000) scale(0.100000,-0.100000)"
fill="4e4e4e" stroke="none">
<path d="M2066 5104 c-171 -41 -326 -181 -388 -349 -18 -50 -23 -86 -26 -212
l-4 -153 -656 0 c-616 0 -660 -2 -697 -19 -126 -57 -149 -217 -45 -304 43 -36
89 -47 208 -47 96 0 102 -1 102 -20 0 -94 162 -3115 170 -3180 15 -110 61
-250 116 -346 125 -219 307 -365 551 -441 l88 -28 1070 0 1070 0 88 28 c331
103 559 347 648 692 18 70 32 286 110 1670 49 875 89 1598 89 1608 0 15 12 17
103 17 118 0 164 11 207 47 104 87 81 247 -45 304 -37 17 -81 19 -697 19
l-656 0 -4 153 c-3 126 -8 162 -26 212 -63 171 -217 308 -393 350 -90 21 -894
21 -983 -1z m942 -368 c76 -40 102 -101 102 -241 l0 -105 -550 0 -550 0 0 105
c0 139 21 190 95 236 28 18 59 19 453 19 344 0 428 -3 450 -14z m1182 -762 c0
-26 -38 -735 -85 -1577 -58 -1037 -90 -1551 -100 -1594 -38 -165 -150 -310
-292 -382 -104 -52 -82 -51 -1163 -51 -892 0 -1013 2 -1061 16 -135 40 -255
135 -323 256 -74 134 -68 68 -156 1743 -43 836 -81 1546 -83 1578 l-3 57 1633
0 1633 0 0 -46z"/>
<path d="M1935 3273 c-44 -23 -65 -44 -86 -85 -19 -37 -19 -70 -17 -1007 l3
-969 31 -39 c70 -88 189 -99 267 -25 60 57 57 -4 57 1047 0 1051 3 990 -57
1047 -52 49 -138 63 -198 31z"/>
<path d="M3040 3279 c-32 -13 -78 -56 -96 -91 -12 -23 -14 -181 -14 -993 0
-1051 -3 -990 57 -1047 78 -74 197 -63 267 25 l31 39 3 969 c2 937 2 970 -17
1007 -22 42 -42 63 -88 86 -35 18 -104 20 -143 5z"/>
</g>
</svg>
